<mxfile host="app.diagrams.net" modified="2024-03-04T07:10:44.994Z" agent="Mozilla/5.0 (Windows NT 10.0; Win64; x64) AppleWebKit/537.36 (KHTML, like Gecko) Chrome/122.0.0.0 Safari/537.36" etag="OAlzSPnywVherT1cymd4" version="22.1.21" type="device">
  <diagram name="Seite-1" id="9uTi92iUf-PLQonkblNb">
    <mxGraphModel dx="1050" dy="572" grid="1" gridSize="10" guides="1" tooltips="1" connect="1" arrows="1" fold="1" page="1" pageScale="1" pageWidth="827" pageHeight="1169" math="0" shadow="0">
      <root>
        <mxCell id="0" />
        <mxCell id="1" parent="0" />
        <mxCell id="Otfbm-KynVgT4QaGFVcP-14" value="" style="outlineConnect=0;dashed=0;verticalLabelPosition=bottom;verticalAlign=top;align=center;html=1;shape=mxgraph.aws3.traditional_server;fillColor=#7D7C7C;gradientColor=none;" vertex="1" parent="1">
          <mxGeometry x="20" y="135" width="320" height="300" as="geometry" />
        </mxCell>
        <mxCell id="Otfbm-KynVgT4QaGFVcP-15" value="&lt;font style=&quot;font-size: 19px;&quot;&gt;Server&lt;/font&gt;" style="text;html=1;align=center;verticalAlign=middle;resizable=0;points=[];autosize=1;strokeColor=none;fillColor=none;" vertex="1" parent="1">
          <mxGeometry x="140" y="100" width="80" height="40" as="geometry" />
        </mxCell>
        <mxCell id="Otfbm-KynVgT4QaGFVcP-16" value="" style="rounded=0;whiteSpace=wrap;html=1;align=center;" vertex="1" parent="1">
          <mxGeometry x="70" y="265" width="220" height="150" as="geometry" />
        </mxCell>
        <mxCell id="Otfbm-KynVgT4QaGFVcP-17" value="ASP.NET Core" style="text;html=1;align=center;verticalAlign=middle;resizable=0;points=[];autosize=1;strokeColor=none;fillColor=none;" vertex="1" parent="1">
          <mxGeometry x="130" y="265" width="100" height="30" as="geometry" />
        </mxCell>
        <mxCell id="Otfbm-KynVgT4QaGFVcP-18" value="&lt;font style=&quot;font-size: 15px;&quot;&gt;Blazor&lt;br&gt;&lt;br&gt;&lt;b&gt;Razor Components&lt;br&gt;.NET Code&lt;/b&gt;&lt;/font&gt;" style="rounded=1;whiteSpace=wrap;html=1;" vertex="1" parent="1">
          <mxGeometry x="80" y="310" width="200" height="95" as="geometry" />
        </mxCell>
        <mxCell id="Otfbm-KynVgT4QaGFVcP-19" value="" style="endArrow=classic;html=1;rounded=0;entryX=-0.012;entryY=0.357;entryDx=0;entryDy=0;entryPerimeter=0;" edge="1" parent="1" target="Otfbm-KynVgT4QaGFVcP-21">
          <mxGeometry width="50" height="50" relative="1" as="geometry">
            <mxPoint x="360" y="240" as="sourcePoint" />
            <mxPoint x="530" y="240" as="targetPoint" />
          </mxGeometry>
        </mxCell>
        <mxCell id="Otfbm-KynVgT4QaGFVcP-21" value="" style="shape=image;html=1;verticalAlign=top;verticalLabelPosition=bottom;labelBackgroundColor=#ffffff;imageAspect=0;aspect=fixed;image=https://cdn4.iconfinder.com/data/icons/success-filloutline/64/website-seo_and_web-internet-technology-application-128.png" vertex="1" parent="1">
          <mxGeometry x="490" y="135" width="295" height="295" as="geometry" />
        </mxCell>
        <mxCell id="Otfbm-KynVgT4QaGFVcP-23" value="" style="endArrow=classic;html=1;rounded=0;exitX=0;exitY=0.5;exitDx=0;exitDy=0;" edge="1" parent="1" source="Otfbm-KynVgT4QaGFVcP-21">
          <mxGeometry width="50" height="50" relative="1" as="geometry">
            <mxPoint x="350" y="250" as="sourcePoint" />
            <mxPoint x="360" y="283" as="targetPoint" />
          </mxGeometry>
        </mxCell>
        <mxCell id="Otfbm-KynVgT4QaGFVcP-24" value="SignalR" style="text;html=1;align=center;verticalAlign=middle;resizable=0;points=[];autosize=1;strokeColor=none;fillColor=none;" vertex="1" parent="1">
          <mxGeometry x="379" y="248" width="70" height="30" as="geometry" />
        </mxCell>
        <mxCell id="Otfbm-KynVgT4QaGFVcP-25" value="DOM" style="rounded=0;whiteSpace=wrap;html=1;fillColor=#d5e8d4;strokeColor=#82b366;" vertex="1" parent="1">
          <mxGeometry x="577.5" y="200" width="120" height="60" as="geometry" />
        </mxCell>
      </root>
    </mxGraphModel>
  </diagram>
</mxfile>
